<svg xmlns="http://www.w3.org/2000/svg" width="32" height="32" viewBox="0 0 32 32" fill="none">
  <rect width="32" height="32" rx="6" fill="#2196F3"/>
  <path d="M6 6H9L11 18H24" stroke="white" stroke-width="2" stroke-linecap="round" stroke-linejoin="round"/>
  <path d="M10 21C10 21.5523 9.55228 22 9 22C8.44772 22 8 21.5523 8 21C8 20.4477 8.44772 20 9 20C9.55228 20 10 20.4477 10 21Z" fill="white" stroke="white" stroke-width="2"/>
  <path d="M24 21C24 21.5523 23.5523 22 23 22C22.4477 22 22 21.5523 22 21C22 20.4477 22.4477 20 23 20C23.5523 20 24 20.4477 24 21Z" fill="white" stroke="white" stroke-width="2"/>
  <path d="M11 18L10.1 14H25L23 18H11Z" fill="white" stroke="white" stroke-width="2" stroke-linejoin="round"/>
</svg>
